<svg xmlns="http://www.w3.org/2000/svg" viewBox="0 0 1200 750" font-family="system-ui, -apple-system, sans-serif">
  <!-- Background -->
  <rect width="1200" height="750" fill="#f9fafb"/>

  <!-- Sidebar -->
  <rect width="240" height="750" fill="#0f2d5c"/>

  <!-- Sidebar logo -->
  <rect x="20" y="20" width="36" height="36" rx="8" fill="rgba(255,255,255,0.2)"/>
  <path d="M32 38l4 4 8-8" stroke="white" stroke-width="2" stroke-linecap="round" stroke-linejoin="round" fill="none"/>
  <text x="64" y="44" fill="white" font-size="17" font-weight="700">ClaimFlow</text>

  <!-- Sidebar nav items -->
  <rect x="16" y="80" width="208" height="40" rx="8" fill="rgba(255,255,255,0.18)"/>
  <rect x="30" y="92" width="18" height="16" rx="3" fill="white" opacity="0.8"/>
  <text x="58" y="105" fill="white" font-size="13.5" font-weight="600">Dashboard</text>

  <rect x="30" y="136" width="18" height="16" rx="3" fill="rgba(255,255,255,0.35)"/>
  <text x="58" y="149" fill="rgba(255,255,255,0.6)" font-size="13.5">My Claims</text>

  <rect x="30" y="170" width="18" height="16" rx="3" fill="rgba(255,255,255,0.35)"/>
  <text x="58" y="183" fill="rgba(255,255,255,0.6)" font-size="13.5">Documents</text>

  <!-- New claim button -->
  <rect x="16" y="690" width="208" height="40" rx="8" fill="rgba(255,255,255,0.12)"/>
  <text x="68" y="715" fill="rgba(255,255,255,0.85)" font-size="13.5" font-weight="500">+ New Claim</text>

  <!-- Header -->
  <rect x="240" y="0" width="960" height="64" fill="white" stroke="#f0f0f0" stroke-width="1"/>
  <text x="272" y="38" fill="#111827" font-size="14" font-weight="600">Welcome back, Alex</text>

  <!-- Header right: role badge + avatar -->
  <rect x="1030" y="20" width="66" height="24" rx="12" fill="#dbeafe"/>
  <text x="1063" y="36" fill="#1d4ed8" font-size="11" font-weight="600" text-anchor="middle">Claimant</text>
  <circle cx="1142" cy="32" r="18" fill="#0f2d5c"/>
  <text x="1142" y="37" fill="white" font-size="12" font-weight="700" text-anchor="middle">AJ</text>

  <!-- Page title -->
  <text x="272" y="104" fill="#111827" font-size="22" font-weight="700">Dashboard</text>
  <text x="272" y="124" fill="#6b7280" font-size="13">Here's an overview of your insurance claims.</text>

  <!-- Stat cards -->
  <!-- Card 1: Total Claims -->
  <rect x="272" y="144" width="200" height="96" rx="12" fill="white" stroke="#f0f0f0" stroke-width="1"/>
  <text x="292" y="172" fill="#6b7280" font-size="12">Total Claims</text>
  <text x="292" y="208" fill="#111827" font-size="32" font-weight="700">20</text>
  <rect x="436" y="158" width="20" height="20" rx="6" fill="#e8eef7"/>
  <rect x="440" y="162" width="12" height="12" rx="2" fill="#0f2d5c"/>

  <!-- Card 2: Pending Review -->
  <rect x="488" y="144" width="200" height="96" rx="12" fill="white" stroke="#f0f0f0" stroke-width="1"/>
  <text x="508" y="172" fill="#6b7280" font-size="12">Pending Review</text>
  <text x="508" y="208" fill="#111827" font-size="32" font-weight="700">7</text>
  <rect x="652" y="158" width="20" height="20" rx="6" fill="#fef3c7"/>
  <circle cx="662" cy="168" r="6" fill="#f59e0b"/>

  <!-- Card 3: Approved -->
  <rect x="704" y="144" width="200" height="96" rx="12" fill="white" stroke="#f0f0f0" stroke-width="1"/>
  <text x="724" y="172" fill="#6b7280" font-size="12">Approved</text>
  <text x="724" y="208" fill="#111827" font-size="32" font-weight="700">8</text>
  <rect x="868" y="158" width="20" height="20" rx="6" fill="#d1fae5"/>
  <path d="M873 168l3 3 6-6" stroke="#10b981" stroke-width="2" stroke-linecap="round" fill="none"/>

  <!-- Card 4: Rejected -->
  <rect x="920" y="144" width="248" height="96" rx="12" fill="white" stroke="#f0f0f0" stroke-width="1"/>
  <text x="940" y="172" fill="#6b7280" font-size="12">Rejected</text>
  <text x="940" y="208" fill="#111827" font-size="32" font-weight="700">3</text>
  <rect x="1140" y="158" width="20" height="20" rx="6" fill="#fee2e2"/>
  <line x1="1145" y1="163" x2="1155" y2="173" stroke="#ef4444" stroke-width="2" stroke-linecap="round"/>
  <line x1="1155" y1="163" x2="1145" y2="173" stroke="#ef4444" stroke-width="2" stroke-linecap="round"/>

  <!-- Recent Claims card -->
  <rect x="272" y="260" width="630" height="448" rx="12" fill="white" stroke="#f0f0f0" stroke-width="1"/>
  <text x="292" y="292" fill="#111827" font-size="15" font-weight="600">Recent Claims</text>
  <text x="860" y="292" fill="#0f2d5c" font-size="12" font-weight="500">View all →</text>

  <!-- Table header -->
  <rect x="272" y="304" width="630" height="34" fill="#f9fafb"/>
  <text x="292" y="325" fill="#6b7280" font-size="11" font-weight="600">CLAIM #</text>
  <text x="390" y="325" fill="#6b7280" font-size="11" font-weight="600">TYPE</text>
  <text x="470" y="325" fill="#6b7280" font-size="11" font-weight="600">STATUS</text>
  <text x="590" y="325" fill="#6b7280" font-size="11" font-weight="600">FILED</text>
  <text x="700" y="325" fill="#6b7280" font-size="11" font-weight="600">AMOUNT</text>
  <text x="840" y="325" fill="#6b7280" font-size="11" font-weight="600"></text>

  <!-- Table rows -->
  <!-- Row 1 -->
  <line x1="272" y1="338" x2="902" y2="338" stroke="#f3f4f6" stroke-width="1"/>
  <text x="292" y="356" fill="#0f2d5c" font-size="12.5" font-weight="500">CLM-2025-00001</text>
  <rect x="388" y="343" width="56" height="20" rx="4" fill="#eff6ff"/>
  <text x="416" y="357" fill="#1d4ed8" font-size="11" text-anchor="middle">🚗 Auto</text>
  <rect x="466" y="343" width="84" height="20" rx="10" fill="#fef3c7"/>
  <text x="508" y="357" fill="#92400e" font-size="11" text-anchor="middle">Under Review</text>
  <text x="590" y="356" fill="#6b7280" font-size="12">Mar 15, 2025</text>
  <text x="700" y="356" fill="#111827" font-size="12" font-weight="500">$12,500</text>
  <text x="860" y="356" fill="#0f2d5c" font-size="12">View →</text>

  <!-- Row 2 -->
  <line x1="272" y1="372" x2="902" y2="372" stroke="#f3f4f6" stroke-width="1"/>
  <text x="292" y="390" fill="#0f2d5c" font-size="12.5" font-weight="500">CLM-2025-00002</text>
  <rect x="388" y="377" width="56" height="20" rx="4" fill="#f0fdf4"/>
  <text x="416" y="391" fill="#166534" font-size="11" text-anchor="middle">🏠 Home</text>
  <rect x="466" y="377" width="68" height="20" rx="10" fill="#d1fae5"/>
  <text x="500" y="391" fill="#065f46" font-size="11" text-anchor="middle">Approved</text>
  <text x="590" y="390" fill="#6b7280" font-size="12">Mar 11, 2025</text>
  <text x="700" y="390" fill="#111827" font-size="12" font-weight="500">$8,200</text>
  <text x="860" y="390" fill="#0f2d5c" font-size="12">View →</text>

  <!-- Row 3 -->
  <line x1="272" y1="406" x2="902" y2="406" stroke="#f3f4f6" stroke-width="1"/>
  <text x="292" y="424" fill="#0f2d5c" font-size="12.5" font-weight="500">CLM-2025-00003</text>
  <rect x="388" y="411" width="64" height="20" rx="4" fill="#fdf2f8"/>
  <text x="420" y="425" fill="#86198f" font-size="11" text-anchor="middle">❤️ Health</text>
  <rect x="466" y="411" width="64" height="20" rx="10" fill="#dbeafe"/>
  <text x="498" y="425" fill="#1e40af" font-size="11" text-anchor="middle">Submitted</text>
  <text x="590" y="424" fill="#6b7280" font-size="12">Mar 7, 2025</text>
  <text x="700" y="424" fill="#111827" font-size="12" font-weight="500">$3,750</text>
  <text x="860" y="424" fill="#0f2d5c" font-size="12">View →</text>

  <!-- Row 4 -->
  <line x1="272" y1="440" x2="902" y2="440" stroke="#f3f4f6" stroke-width="1"/>
  <text x="292" y="458" fill="#0f2d5c" font-size="12.5" font-weight="500">CLM-2025-00004</text>
  <rect x="388" y="445" width="64" height="20" rx="4" fill="#f0fdf4"/>
  <text x="420" y="459" fill="#166534" font-size="11" text-anchor="middle">✈️ Travel</text>
  <rect x="466" y="445" width="60" height="20" rx="10" fill="#fee2e2"/>
  <text x="496" y="459" fill="#991b1b" font-size="11" text-anchor="middle">Rejected</text>
  <text x="590" y="458" fill="#6b7280" font-size="12">Mar 3, 2025</text>
  <text x="700" y="458" fill="#111827" font-size="12" font-weight="500">$1,100</text>
  <text x="860" y="458" fill="#0f2d5c" font-size="12">View →</text>

  <!-- Row 5 -->
  <line x1="272" y1="474" x2="902" y2="474" stroke="#f3f4f6" stroke-width="1"/>
  <text x="292" y="492" fill="#0f2d5c" font-size="12.5" font-weight="500">CLM-2025-00005</text>
  <rect x="388" y="479" width="56" height="20" rx="4" fill="#eff6ff"/>
  <text x="416" y="493" fill="#1d4ed8" font-size="11" text-anchor="middle">🚗 Auto</text>
  <rect x="466" y="479" width="84" height="20" rx="10" fill="#fef3c7"/>
  <text x="508" y="493" fill="#92400e" font-size="11" text-anchor="middle">Under Review</text>
  <text x="590" y="492" fill="#6b7280" font-size="12">Feb 28, 2025</text>
  <text x="700" y="492" fill="#111827" font-size="12" font-weight="500">$22,000</text>
  <text x="860" y="492" fill="#0f2d5c" font-size="12">View →</text>

  <!-- Row 6 -->
  <line x1="272" y1="508" x2="902" y2="508" stroke="#f3f4f6" stroke-width="1"/>
  <text x="292" y="526" fill="#0f2d5c" font-size="12.5" font-weight="500">CLM-2025-00006</text>
  <rect x="388" y="513" width="56" height="20" rx="4" fill="#faf5ff"/>
  <text x="416" y="527" fill="#6b21a8" font-size="11" text-anchor="middle">🛡️ Life</text>
  <rect x="466" y="513" width="68" height="20" rx="10" fill="#d1fae5"/>
  <text x="500" y="527" fill="#065f46" font-size="11" text-anchor="middle">Approved</text>
  <text x="590" y="526" fill="#6b7280" font-size="12">Feb 22, 2025</text>
  <text x="700" y="526" fill="#111827" font-size="12" font-weight="500">$45,000</text>
  <text x="860" y="526" fill="#0f2d5c" font-size="12">View →</text>

  <!-- Activity panel -->
  <rect x="922" y="260" width="246" height="448" rx="12" fill="white" stroke="#f0f0f0" stroke-width="1"/>
  <text x="942" y="292" fill="#111827" font-size="15" font-weight="600">Recent Activity</text>

  <!-- Activity items -->
  <circle cx="952" cy="328" r="8" fill="#0f2d5c"/>
  <line x1="952" y1="336" x2="952" y2="368" stroke="#e5e7eb" stroke-width="1.5"/>
  <text x="968" y="324" fill="#111827" font-size="12" font-weight="500">Under Review</text>
  <text x="968" y="338" fill="#6b7280" font-size="11">CLM-2025-00001</text>
  <text x="968" y="350" fill="#9ca3af" font-size="10">Mar 17, 10:24 AM</text>

  <circle cx="952" cy="380" r="8" fill="#10b981"/>
  <line x1="952" y1="388" x2="952" y2="420" stroke="#e5e7eb" stroke-width="1.5"/>
  <text x="968" y="376" fill="#111827" font-size="12" font-weight="500">Approved</text>
  <text x="968" y="390" fill="#6b7280" font-size="11">CLM-2025-00002</text>
  <text x="968" y="402" fill="#9ca3af" font-size="10">Mar 13, 2:11 PM</text>

  <circle cx="952" cy="432" r="8" fill="#3b82f6"/>
  <line x1="952" y1="440" x2="952" y2="472" stroke="#e5e7eb" stroke-width="1.5"/>
  <text x="968" y="428" fill="#111827" font-size="12" font-weight="500">Submitted</text>
  <text x="968" y="442" fill="#6b7280" font-size="11">CLM-2025-00003</text>
  <text x="968" y="454" fill="#9ca3af" font-size="10">Mar 9, 9:05 AM</text>

  <circle cx="952" cy="484" r="8" fill="#ef4444"/>
  <line x1="952" y1="492" x2="952" y2="524" stroke="#e5e7eb" stroke-width="1.5"/>
  <text x="968" y="480" fill="#111827" font-size="12" font-weight="500">Rejected</text>
  <text x="968" y="494" fill="#6b7280" font-size="11">CLM-2025-00004</text>
  <text x="968" y="506" fill="#9ca3af" font-size="10">Mar 5, 4:45 PM</text>

  <circle cx="952" cy="536" r="8" fill="#0f2d5c"/>
  <text x="968" y="532" fill="#111827" font-size="12" font-weight="500">Under Review</text>
  <text x="968" y="546" fill="#6b7280" font-size="11">CLM-2025-00005</text>
  <text x="968" y="558" fill="#9ca3af" font-size="10">Mar 2, 11:30 AM</text>

  <!-- File new claim button -->
  <rect x="272" y="728" width="180" height="16" rx="0" fill="none"/>
  <rect x="384" y="690" width="220" height="44" rx="12" fill="#0f2d5c"/>
  <text x="494" y="718" fill="white" font-size="14" font-weight="600" text-anchor="middle">+ File a New Claim</text>
</svg>
